<mxfile host="app.diagrams.net" modified="2023-07-27T12:08:22.821Z" agent="Mozilla/5.0 (Windows NT 10.0; Win64; x64) AppleWebKit/537.36 (KHTML, like Gecko) Chrome/115.0.0.0 Safari/537.36 Edg/115.0.1901.183" etag="LHgQ_STnuxLJj02Rmyik" version="21.6.2" type="device">
  <diagram name="Страница 1" id="Blh87Bfx2YKb9ALQyvLL">
    <mxGraphModel dx="996" dy="669" grid="1" gridSize="10" guides="1" tooltips="1" connect="1" arrows="1" fold="1" page="1" pageScale="1" pageWidth="827" pageHeight="1169" math="0" shadow="0">
      <root>
        <mxCell id="0" />
        <mxCell id="1" parent="0" />
        <mxCell id="2fFAP_jAtBXyU5PeyaGX-1" value="" style="shape=internalStorage;whiteSpace=wrap;html=1;backgroundOutline=1;dx=460;dy=35;" vertex="1" parent="1">
          <mxGeometry x="60" y="45" width="690" height="540" as="geometry" />
        </mxCell>
        <mxCell id="2fFAP_jAtBXyU5PeyaGX-2" value="Тип графика" style="html=1;whiteSpace=wrap;container=1;recursiveResize=0;collapsible=0;" vertex="1" parent="1">
          <mxGeometry x="559" y="90" width="161" height="40" as="geometry" />
        </mxCell>
        <mxCell id="2fFAP_jAtBXyU5PeyaGX-3" value="" style="triangle;html=1;whiteSpace=wrap;" vertex="1" parent="2fFAP_jAtBXyU5PeyaGX-2">
          <mxGeometry x="10" y="10" width="4" height="20" as="geometry" />
        </mxCell>
        <mxCell id="2fFAP_jAtBXyU5PeyaGX-4" value="Тип товара" style="html=1;whiteSpace=wrap;container=1;recursiveResize=0;collapsible=0;" vertex="1" parent="1">
          <mxGeometry x="559" y="139" width="161" height="40" as="geometry" />
        </mxCell>
        <mxCell id="2fFAP_jAtBXyU5PeyaGX-5" value="" style="triangle;html=1;whiteSpace=wrap;" vertex="1" parent="2fFAP_jAtBXyU5PeyaGX-4">
          <mxGeometry x="10" y="10" width="4" height="20" as="geometry" />
        </mxCell>
        <mxCell id="2fFAP_jAtBXyU5PeyaGX-6" value="Категория товара" style="html=1;whiteSpace=wrap;container=1;recursiveResize=0;collapsible=0;" vertex="1" parent="1">
          <mxGeometry x="559" y="190" width="161" height="40" as="geometry" />
        </mxCell>
        <mxCell id="2fFAP_jAtBXyU5PeyaGX-7" value="" style="triangle;html=1;whiteSpace=wrap;" vertex="1" parent="2fFAP_jAtBXyU5PeyaGX-6">
          <mxGeometry x="10" y="10" width="4" height="20" as="geometry" />
        </mxCell>
        <mxCell id="2fFAP_jAtBXyU5PeyaGX-8" value="Подкатегория товара" style="html=1;whiteSpace=wrap;container=1;recursiveResize=0;collapsible=0;" vertex="1" parent="1">
          <mxGeometry x="559" y="240" width="161" height="40" as="geometry" />
        </mxCell>
        <mxCell id="2fFAP_jAtBXyU5PeyaGX-9" value="" style="triangle;html=1;whiteSpace=wrap;" vertex="1" parent="2fFAP_jAtBXyU5PeyaGX-8">
          <mxGeometry x="10" y="10" width="4" height="20" as="geometry" />
        </mxCell>
        <UserObject label="&lt;b&gt;&lt;font style=&quot;font-size: 17px;&quot;&gt;Период&lt;/font&gt;&lt;/b&gt;" link="https://www.draw.io" id="2fFAP_jAtBXyU5PeyaGX-10">
          <mxCell style="text;html=1;strokeColor=none;fillColor=none;whiteSpace=wrap;align=center;verticalAlign=middle;fontColor=#0000EE;fontStyle=4;" vertex="1" parent="1">
            <mxGeometry x="570" y="280" width="120" height="40" as="geometry" />
          </mxCell>
        </UserObject>
        <mxCell id="2fFAP_jAtBXyU5PeyaGX-11" value="С" style="html=1;whiteSpace=wrap;container=1;recursiveResize=0;collapsible=0;" vertex="1" parent="1">
          <mxGeometry x="570" y="310" width="131" height="40" as="geometry" />
        </mxCell>
        <mxCell id="2fFAP_jAtBXyU5PeyaGX-12" value="" style="triangle;html=1;whiteSpace=wrap;" vertex="1" parent="2fFAP_jAtBXyU5PeyaGX-11">
          <mxGeometry x="10" y="10" width="4" height="20" as="geometry" />
        </mxCell>
        <mxCell id="2fFAP_jAtBXyU5PeyaGX-13" value="ПО" style="html=1;whiteSpace=wrap;container=1;recursiveResize=0;collapsible=0;" vertex="1" parent="1">
          <mxGeometry x="570" y="350" width="131" height="40" as="geometry" />
        </mxCell>
        <mxCell id="2fFAP_jAtBXyU5PeyaGX-14" value="" style="triangle;html=1;whiteSpace=wrap;" vertex="1" parent="2fFAP_jAtBXyU5PeyaGX-13">
          <mxGeometry x="10" y="10" width="4" height="20" as="geometry" />
        </mxCell>
        <UserObject label="%date{ddd mmm dd yyyy HH:MM:ss}%" placeholders="1" id="2fFAP_jAtBXyU5PeyaGX-15">
          <mxCell style="text;html=1;strokeColor=none;fillColor=none;align=center;verticalAlign=middle;whiteSpace=wrap;overflow=hidden;" vertex="1" parent="1">
            <mxGeometry x="560" y="51" width="160" height="20" as="geometry" />
          </mxCell>
        </UserObject>
        <mxCell id="2fFAP_jAtBXyU5PeyaGX-20" value="" style="shape=message;html=1;html=1;outlineConnect=0;labelPosition=center;verticalLabelPosition=bottom;align=center;verticalAlign=top;" vertex="1" parent="1">
          <mxGeometry x="260" y="51" width="40" height="20" as="geometry" />
        </mxCell>
        <mxCell id="2fFAP_jAtBXyU5PeyaGX-21" value="При наведении - &lt;br&gt;отправить сообщением" style="text;html=1;align=center;verticalAlign=middle;resizable=0;points=[];autosize=1;strokeColor=none;fillColor=none;" vertex="1" parent="1">
          <mxGeometry x="215" y="3" width="150" height="40" as="geometry" />
        </mxCell>
        <mxCell id="2fFAP_jAtBXyU5PeyaGX-22" value="Меню" style="labelPosition=center;verticalLabelPosition=middle;align=center;html=1;shape=mxgraph.basic.shaded_button;dx=10;fillColor=#E6E6E6;strokeColor=none;whiteSpace=wrap;" vertex="1" parent="1">
          <mxGeometry x="62" y="48" width="60" height="30" as="geometry" />
        </mxCell>
        <mxCell id="2fFAP_jAtBXyU5PeyaGX-23" value="При нажатии выдвигающееся&lt;br&gt;&amp;nbsp;меню слева" style="text;html=1;align=center;verticalAlign=middle;resizable=0;points=[];autosize=1;strokeColor=none;fillColor=none;" vertex="1" parent="1">
          <mxGeometry x="5" y="3" width="190" height="40" as="geometry" />
        </mxCell>
        <mxCell id="2fFAP_jAtBXyU5PeyaGX-24" value="Выполнить" style="labelPosition=center;verticalLabelPosition=middle;align=center;html=1;shape=mxgraph.basic.button;dx=10;whiteSpace=wrap;" vertex="1" parent="1">
          <mxGeometry x="570" y="480" width="130" height="90" as="geometry" />
        </mxCell>
        <mxCell id="2fFAP_jAtBXyU5PeyaGX-25" value="" style="verticalLabelPosition=bottom;verticalAlign=top;html=1;shape=mxgraph.basic.tick" vertex="1" parent="1">
          <mxGeometry x="580" y="400" width="45" height="40" as="geometry" />
        </mxCell>
        <mxCell id="2fFAP_jAtBXyU5PeyaGX-26" value="" style="verticalLabelPosition=bottom;verticalAlign=top;html=1;shape=mxgraph.basic.x" vertex="1" parent="1">
          <mxGeometry x="651" y="400" width="50" height="40" as="geometry" />
        </mxCell>
        <mxCell id="2fFAP_jAtBXyU5PeyaGX-27" value="Выдвижное меню" style="swimlane;startSize=23;" vertex="1" parent="1">
          <mxGeometry x="60" y="80" width="200" height="224" as="geometry" />
        </mxCell>
        <mxCell id="2fFAP_jAtBXyU5PeyaGX-29" value="Сохранить" style="labelPosition=center;verticalLabelPosition=middle;align=center;html=1;shape=mxgraph.basic.button;dx=10;whiteSpace=wrap;" vertex="1" parent="1">
          <mxGeometry x="60" y="104" width="200" height="40" as="geometry" />
        </mxCell>
        <mxCell id="2fFAP_jAtBXyU5PeyaGX-30" value="Сохранить как" style="labelPosition=center;verticalLabelPosition=middle;align=center;html=1;shape=mxgraph.basic.button;dx=10;whiteSpace=wrap;" vertex="1" parent="1">
          <mxGeometry x="60" y="144" width="200" height="40" as="geometry" />
        </mxCell>
        <mxCell id="2fFAP_jAtBXyU5PeyaGX-32" value="Печать" style="labelPosition=center;verticalLabelPosition=middle;align=center;html=1;shape=mxgraph.basic.button;dx=10;whiteSpace=wrap;" vertex="1" parent="1">
          <mxGeometry x="60" y="184" width="200" height="40" as="geometry" />
        </mxCell>
        <mxCell id="2fFAP_jAtBXyU5PeyaGX-33" value="Настройки" style="labelPosition=center;verticalLabelPosition=middle;align=center;html=1;shape=mxgraph.basic.button;dx=10;whiteSpace=wrap;" vertex="1" parent="1">
          <mxGeometry x="60" y="224" width="200" height="40" as="geometry" />
        </mxCell>
        <mxCell id="2fFAP_jAtBXyU5PeyaGX-36" value="Сброс" style="labelPosition=center;verticalLabelPosition=middle;align=center;html=1;shape=mxgraph.basic.button;dx=10;whiteSpace=wrap;" vertex="1" parent="1">
          <mxGeometry x="60" y="264" width="200" height="40" as="geometry" />
        </mxCell>
      </root>
    </mxGraphModel>
  </diagram>
</mxfile>
